<?xml version="1.0" encoding="iso-8859-1"?>
<!-- Generator: Adobe Illustrator 19.0.0, SVG Export Plug-In . SVG Version: 6.00 Build 0)  -->
<svg version="1.1" id="Layer_1" xmlns="http://www.w3.org/2000/svg" xmlns:xlink="http://www.w3.org/1999/xlink" x="0px" y="0px"
	 viewBox="0 0 512 512" style="enable-background:new 0 0 512 512;" xml:space="preserve">
<g transform="translate(1 1)">
	<g>
		<g>
			<path d="M436.162,289.133c-7.68-83.627-23.04-147.627-46.933-184.32c-1.707-1.707-11.947-13.653-15.36-17.92
				c-0.854-0.854-1.796-1.474-2.777-1.897c-8.632-8.406-16.525-14.493-23.677-16.877c0.853-9.387-1.707-20.48-7.68-30.72
				C326.935,13.507,298.775-1,254.402-1s-72.533,14.507-85.333,38.4c-5.973,10.24-8.533,21.333-8.533,30.72
				c-6.827,2.56-14.507,8.533-24.747,18.773c-3.413,4.267-7.68,7.68-11.093,11.947c-1.707,2.56-3.413,4.267-4.267,5.12
				c-23.893,37.547-39.253,101.547-46.933,185.173c-6.827,66.56-7.68,136.533-6.827,197.973c0,0.291,0,0.57,0,0.853
				c0,3.87,0,7.06,0,10.24c0,1.251,0,2.498,0,3.413c0,0.333,0,0.625,0,0.853c0,4.267,4.267,8.533,8.533,8.533h34.133
				c3.413,0,6.827-1.707,7.68-5.12l22.369-53.994c1.33,1.242,2.692,2.441,4.084,3.597v38.45c0,9.387,7.68,17.067,17.067,17.067
				h187.733c9.387,0,17.067-7.68,17.067-17.067v-37.757c1.689-1.369,3.338-2.796,4.938-4.29l18.002,43.453l3.514,10.541
				c1.707,3.413,4.267,5.12,7.68,5.12h0.853h33.28h0.853c4.267,0,8.533-3.413,8.533-8.533c0-0.853,0-1.707,0-4.267
				c0-3.413,0-6.827,0-11.093C444.695,425.667,442.989,355.693,436.162,289.133z M419.095,291.693
				c4.837,53.202,6.874,108.638,6.569,160.427h-38.968l-4.294-10.24c0.065-1.606,0.126-3.196,0.189-4.794
				c0.389-0.962,0.665-1.924,0.665-2.886c3.413-104.96,2.56-191.147-0.853-261.12c-0.693-20.108-1.95-37.398-3.312-51.872
				C398.659,155.371,411.429,215.026,419.095,291.693z M425.069,493.933h-19.627l-10.24-25.6h30.282
				c-0.103,6.613-0.236,13.171-0.415,19.627C425.069,490.224,425.069,491.823,425.069,493.933z M90.562,290.84
				c7.562-74.779,20.092-133.821,39.211-169.017c-1.385,15.054-2.668,32.42-3.371,52.11c-1.65,44.538-2.588,96.175-2.136,155.343
				c0.157,34.873,0.837,72.135,2.136,111.751l-4.294,10.24H83.992C83.697,399.806,85.735,343.933,90.562,290.84z M104.215,493.933
				H84.589c0-1.517,0-3.708,0-5.973c0-0.284,0-0.568,0-0.853c0-5.768,0-12.266,0-18.773h30.362L104.215,493.933z M348.269,493.933
				H160.535v-27.212c3.198,1.63,6.489,3.073,9.863,4.322c0.074,0.028,0.147,0.056,0.222,0.084c0.769,0.282,1.543,0.553,2.32,0.815
				c0.098,0.033,0.194,0.068,0.292,0.101c9.489,3.165,19.574,4.824,29.971,4.824h103.253c14.851,0,29.068-3.379,41.813-9.711
				V493.933z M320.043,458.592c-0.323,0.057-0.645,0.118-0.969,0.171c-0.397,0.066-0.796,0.124-1.194,0.184
				c-0.587,0.087-1.174,0.168-1.763,0.242c-0.266,0.033-0.531,0.069-0.797,0.1c-0.882,0.101-1.766,0.188-2.651,0.26
				c-0.169,0.014-0.339,0.023-0.509,0.035c-0.754,0.055-1.509,0.1-2.264,0.133c-0.238,0.011-0.476,0.021-0.714,0.03
				c-0.908,0.032-1.817,0.054-2.726,0.054H203.202c-0.911,0-1.822-0.022-2.733-0.054c-0.229-0.008-0.458-0.018-0.687-0.029
				c-0.807-0.036-1.613-0.082-2.419-0.143c-0.106-0.008-0.213-0.014-0.319-0.022c-0.964-0.077-1.926-0.172-2.887-0.286
				c-0.058-0.007-0.115-0.015-0.172-0.022c-0.965-0.116-1.928-0.249-2.889-0.402c-0.007-0.001-0.015-0.002-0.022-0.003
				c-8.013-1.279-15.867-3.834-23.243-7.664c-0.038-0.02-0.075-0.04-0.112-0.06c-0.717-0.374-1.427-0.768-2.135-1.166
				c-0.315-0.178-0.631-0.355-0.943-0.538c-0.231-0.134-0.459-0.277-0.69-0.414c-7.752-4.656-14.723-10.758-20.482-18.21
				c-1.44-43.552-2.118-83.751-2.167-120.816c0.065-48.697,1.162-92.345,3.021-130.918c1.554-38.862,4.524-69.22,6.331-81.42
				c5.819-5.786,10.809-9.947,13.876-11.662c2.178,3.847,5.174,8.198,8.807,12.868c10.24,12.8,23.04,20.48,38.4,20.48
				c5.12,0,8.533-3.413,8.533-8.533s-3.413-8.533-8.533-8.533c-9.387,0-17.92-5.12-25.6-13.653c-2.56-3.413-5.12-6.827-6.827-10.24
				c-1.091-2.182-1.485-3.661-1.85-4.671c-0.433-8.797,1.378-18.214,6.116-26.902c10.24-19.627,32.427-30.72,70.827-30.72
				c38.4,0,60.587,11.093,70.827,29.867c5.12,9.387,6.827,19.627,5.973,28.16c-0.006,0.045-0.005,0.089-0.01,0.134
				c-1.918,3.496-6.523,10.852-8.524,13.519c-7.68,8.533-16.213,13.653-25.6,13.653c-5.12,0-8.533,3.413-8.533,8.533
				s3.413,8.533,8.533,8.533c15.36,0,28.16-7.68,38.4-20.48c3.71-4.24,6.76-8.809,8.949-12.889
				c3.377,1.735,8.944,6.036,14.944,12.036c0,0.853,0.853,10.24,1.707,16.213c1.707,16.213,3.413,36.693,4.267,60.587
				c3.413,68.267,4.267,153.6,0.853,256.853C354.567,445.827,338.014,455.384,320.043,458.592z"/>
			<path d="M241.602,101.4h25.6c5.12,0,10.24-2.56,13.653-5.973l20.48-26.453c8.533-11.093,0.853-27.307-13.653-27.307h-66.56
				c-14.507,0-22.187,16.213-13.653,27.307l20.48,25.6C231.362,98.84,236.482,101.4,241.602,101.4z M287.682,58.733l-20.48,25.6
				h-25.6l-20.48-25.6H287.682z"/>
			<path d="M228.802,203.8c5.12,0,8.533-3.413,8.533-8.533V127c0-5.12-3.413-8.533-8.533-8.533c-5.12,0-8.533,3.413-8.533,8.533
				v68.267C220.269,200.387,223.682,203.8,228.802,203.8z"/>
			<path d="M271.469,127v68.267c0,5.12,3.413,8.533,8.533,8.533s8.533-3.413,8.533-8.533V127c0-5.12-3.413-8.533-8.533-8.533
				S271.469,121.88,271.469,127z"/>
			<path d="M339.735,391.533c-17.92,0-34.133-22.187-34.133-51.2c0-5.12-3.413-8.533-8.533-8.533h-42.667h-42.667
				c-5.12,0-8.533,3.413-8.533,8.533c0,29.013-16.213,51.2-34.133,51.2c-5.12,0-8.533,3.413-8.533,8.533V434.2
				c0,5.12,3.413,8.533,8.533,8.533h85.333h85.333c5.12,0,8.533-3.413,8.533-8.533v-34.133
				C348.269,394.947,344.855,391.533,339.735,391.533z M177.602,407.747c22.187-5.12,39.253-29.013,42.667-58.88h25.6v76.8h-68.267
				V407.747z M331.202,425.667h-68.267v-76.8h25.6c3.413,29.867,20.48,53.76,42.667,58.88V425.667z"/>
		</g>
	</g>
</g>
<g>
</g>
<g>
</g>
<g>
</g>
<g>
</g>
<g>
</g>
<g>
</g>
<g>
</g>
<g>
</g>
<g>
</g>
<g>
</g>
<g>
</g>
<g>
</g>
<g>
</g>
<g>
</g>
<g>
</g>
</svg>
