<?xml version="1.0" encoding="iso-8859-1"?>
<!-- Generator: Adobe Illustrator 19.0.0, SVG Export Plug-In . SVG Version: 6.00 Build 0)  -->
<svg version="1.1" id="Layer_1" xmlns="http://www.w3.org/2000/svg" xmlns:xlink="http://www.w3.org/1999/xlink" x="0px" y="0px"
	 viewBox="0 0 512 512" style="enable-background:new 0 0 512 512;" xml:space="preserve">
<g>
	<g>
		<path d="M405.333,0H106.667C100.8,0,96,4.8,96,10.667v490.667C96,507.2,100.8,512,106.667,512h138.667
			C251.2,512,256,507.2,256,501.333v-281.92c0-6.613,2.88-6.613,5.333-6.613s5.333,0,5.333,6.613v281.92
			c0,5.867,4.8,10.667,10.667,10.667h128C411.2,512,416,507.2,416,501.333V10.667C416,4.8,411.2,0,405.333,0z M277.334,21.333V64
			h-42.667V21.333H277.334z M117.333,21.333h96V64h-96V21.333z M117.333,85.333h62.827c-5.867,28.693-34.027,56.853-62.827,62.827
			V85.333z M288,490.667V219.413c0-16.747-10.667-27.947-26.667-27.947s-26.667,11.2-26.667,27.947v271.253H117.333V169.813
			c40.32-5.973,78.507-44.16,84.48-84.48h108.373c5.973,40.32,44.16,78.507,84.48,84.48v320.854H288z M394.667,148.16
			c-28.693-5.867-56.853-34.027-62.827-62.827h62.827V148.16z M394.667,64h-96V21.333h96V64z"/>
	</g>
</g>
<g>
</g>
<g>
</g>
<g>
</g>
<g>
</g>
<g>
</g>
<g>
</g>
<g>
</g>
<g>
</g>
<g>
</g>
<g>
</g>
<g>
</g>
<g>
</g>
<g>
</g>
<g>
</g>
<g>
</g>
</svg>
