<?xml version="1.0" encoding="iso-8859-1"?>
<!-- Generator: Adobe Illustrator 18.0.0, SVG Export Plug-In . SVG Version: 6.00 Build 0)  -->
<!DOCTYPE svg PUBLIC "-//W3C//DTD SVG 1.1//EN" "http://www.w3.org/Graphics/SVG/1.1/DTD/svg11.dtd">
<svg version="1.1" id="Capa_1" xmlns="http://www.w3.org/2000/svg" xmlns:xlink="http://www.w3.org/1999/xlink" x="0px" y="0px"
	 viewBox="0 0 482.48 482.48" style="enable-background:new 0 0 482.48 482.48;" xml:space="preserve">
<g>
	<path d="M480.283,188.035L379.366,87.118l-1.441-1.441c-0.818-0.818-1.717-1.558-2.711-2.151c-0.4-0.238-0.806-0.448-1.152-0.56
		c-42.957-13.989-87.645-21.083-132.822-21.083c-45.177,0-89.865,7.093-132.822,21.083c-1.152,0.375-2.163,1.011-2.981,1.829
		l-2.405,2.404L2.197,188.035c-2.929,2.929-2.929,7.678,0,10.606l67.88,67.88c1.464,1.464,3.384,2.197,5.303,2.197
		s3.839-0.732,5.303-2.197l22.557-22.557v169.132c0,4.142,3.358,7.5,7.5,7.5h261c4.142,0,7.5-3.358,7.5-7.5V243.965l22.557,22.557
		c1.464,1.464,3.384,2.197,5.303,2.197s3.839-0.732,5.303-2.197l67.88-67.88C483.213,195.713,483.213,190.964,480.283,188.035z
		 M300.919,152.365l-28.381-29.757l24.238-41.982c0.792,0.107,1.581,0.226,2.372,0.338L300.919,152.365z M280.539,78.75
		l-39.299,68.068L201.941,78.75c13.035-1.241,26.145-1.867,39.299-1.867C254.394,76.883,267.504,77.509,280.539,78.75z
		 M184.493,80.799c0.404-0.056,0.807-0.118,1.211-0.172l24.674,42.738l-27.66,29.001L184.493,80.799z M75.38,250.612l-57.273-57.273
		l85.133-85.134v114.547L75.38,250.612z M118.24,95.579c16.824-5.237,33.915-9.37,51.19-12.414l-2.188,88.246
		c-0.077,3.099,1.76,5.926,4.624,7.113c0.93,0.386,1.905,0.573,2.872,0.573c2.011,0,3.984-0.81,5.429-2.324l38.028-39.872
		l15.545,26.925v241.769h-115.5L118.24,95.579z M364.24,405.597h-115.5V163.828l15.982-27.681l38.749,40.628
		c1.445,1.515,3.418,2.324,5.429,2.324c0.967,0,1.942-0.188,2.872-0.573c2.863-1.188,4.701-4.014,4.624-7.113l-2.183-88.036
		c16.879,3.024,33.581,7.084,50.027,12.203V405.597z M407.1,250.612l-27.86-27.86V108.204l41.394,41.394H404.57
		c-4.142,0-7.5,3.358-7.5,7.5s3.358,7.5,7.5,7.5h16.564l-11.712,11.712c-2.929,2.929-2.929,7.678,0,10.606
		c1.464,1.464,3.384,2.197,5.303,2.197s3.839-0.732,5.303-2.197l11.712-11.712v16.563c0,4.142,3.358,7.5,7.5,7.5s7.5-3.358,7.5-7.5
		v-16.063l17.634,17.634L407.1,250.612z"/>
	<path d="M313.148,279.707v-19.17c0-4.142-3.358-7.5-7.5-7.5s-7.5,3.358-7.5,7.5v19.17c-0.822,0.288-1.625,0.617-2.401,0.993
		l-13.554-13.554c-2.928-2.929-7.677-2.929-10.606,0c-2.929,2.929-2.929,7.677,0,10.606l13.554,13.555
		c-0.376,0.776-0.705,1.579-0.993,2.401h-19.17c-4.142,0-7.5,3.358-7.5,7.5s3.358,7.5,7.5,7.5h19.17
		c0.288,0.822,0.617,1.624,0.993,2.4l-13.554,13.555c-2.929,2.929-2.929,7.678,0,10.606c1.464,1.464,3.384,2.197,5.303,2.197
		s3.839-0.732,5.303-2.197l13.554-13.555c0.776,0.376,1.579,0.705,2.4,0.993v19.17c0,4.142,3.358,7.5,7.5,7.5s7.5-3.358,7.5-7.5
		v-19.17c0.822-0.288,1.624-0.617,2.401-0.993l13.555,13.555c1.464,1.464,3.384,2.197,5.303,2.197s3.839-0.732,5.303-2.197
		c2.929-2.929,2.929-7.678,0-10.606l-13.554-13.554c0.376-0.776,0.705-1.579,0.993-2.401h19.17c4.142,0,7.5-3.358,7.5-7.5
		s-3.358-7.5-7.5-7.5h-19.17c-0.288-0.822-0.617-1.625-0.993-2.401l13.554-13.554c2.929-2.929,2.929-7.678,0-10.606
		c-2.929-2.929-7.678-2.929-10.606,0L315.548,280.7C314.772,280.323,313.97,279.994,313.148,279.707z M313.422,301.207
		c0,4.287-3.488,7.774-7.775,7.774c-4.287,0-7.774-3.488-7.774-7.774c0-4.287,3.488-7.775,7.774-7.775
		C309.935,293.432,313.422,296.92,313.422,301.207z"/>
	<path d="M226.658,353.989c4.012-1.031,6.428-5.119,5.397-9.131c-1.032-4.012-5.12-6.429-9.131-5.397l-18.559,4.77
		c-0.482-0.724-1.015-1.406-1.572-2.065l9.759-16.512c2.107-3.566,0.925-8.165-2.64-10.273c-3.567-2.108-8.165-0.925-10.273,2.64
		l-9.758,16.509c-0.844-0.169-1.698-0.307-2.57-0.379l-4.77-18.559c-1.032-4.012-5.122-6.427-9.131-5.397
		c-4.012,1.031-6.428,5.119-5.397,9.131l4.772,18.567c-0.724,0.483-1.419,1.001-2.077,1.558l-16.502-9.754
		c-3.565-2.107-8.166-0.926-10.273,2.64s-0.925,8.165,2.64,10.273l16.502,9.754c-0.171,0.845-0.29,1.704-0.364,2.572l-18.567,4.772
		c-4.012,1.031-6.428,5.119-5.396,9.131c0.87,3.386,3.917,5.635,7.258,5.635c0.618,0,1.247-0.077,1.873-0.238l18.559-4.77
		c0.482,0.724,1.015,1.406,1.573,2.066l-9.759,16.511c-2.107,3.566-0.925,8.165,2.64,10.273c1.198,0.708,2.512,1.044,3.809,1.044
		c2.565,0,5.064-1.316,6.464-3.685l9.758-16.509c0.844,0.169,1.698,0.307,2.569,0.379l4.77,18.559
		c0.871,3.385,3.917,5.635,7.259,5.635c0.618,0,1.246-0.077,1.872-0.238c4.012-1.031,6.428-5.119,5.397-9.131l-4.775-18.577
		c0.72-0.478,1.409-0.997,2.069-1.555l16.512,9.76c1.198,0.708,2.512,1.044,3.809,1.044c2.565,0,5.064-1.316,6.464-3.685
		c2.107-3.566,0.925-8.165-2.64-10.273l-16.513-9.76c0.171-0.847,0.292-1.701,0.364-2.562L226.658,353.989z M192.094,360.804
		c-1.057,1.788-2.746,3.058-4.757,3.574c-0.641,0.165-1.296,0.249-1.946,0.249c-3.543,0-6.636-2.403-7.52-5.843
		c-1.067-4.152,1.442-8.398,5.595-9.466c0.641-0.165,1.296-0.248,1.946-0.248c3.543,0,6.635,2.403,7.52,5.843
		C193.448,356.925,193.151,359.016,192.094,360.804z"/>
	<path d="M157.46,239.46l-7.269,17.728c-1.571,3.833,0.262,8.213,4.094,9.785c0.931,0.382,1.895,0.563,2.842,0.563
		c2.953,0,5.752-1.755,6.942-4.657l7.275-17.742c0.406,0.022,0.812,0.045,1.222,0.045c0.458,0,0.911-0.04,1.366-0.067l7.407,17.702
		c1.203,2.875,3.989,4.607,6.922,4.607c0.965,0,1.946-0.188,2.892-0.583c3.821-1.599,5.623-5.993,4.024-9.814l-7.404-17.695
		c0.643-0.577,1.251-1.189,1.824-1.837l17.748,7.277c0.931,0.382,1.895,0.563,2.842,0.563c2.953,0,5.752-1.755,6.942-4.657
		c1.571-3.833-0.262-8.213-4.094-9.785l-17.747-7.277c0.047-0.863,0.044-1.726-0.009-2.589l17.695-7.404
		c3.821-1.599,5.623-5.993,4.024-9.814c-1.599-3.822-5.993-5.622-9.814-4.024l-17.687,7.4c-0.581-0.648-1.189-1.266-1.836-1.84
		l7.269-17.728c1.571-3.833-0.262-8.213-4.094-9.785c-3.831-1.572-8.212,0.262-9.785,4.094l-7.275,17.742
		c-0.406-0.022-0.812-0.045-1.222-0.045c-0.458,0-0.911,0.04-1.366,0.067l-7.407-17.702c-1.599-3.821-5.993-5.622-9.814-4.024
		c-3.821,1.599-5.623,5.993-4.024,9.814l7.399,17.684c-0.647,0.583-1.261,1.196-1.831,1.842l-17.736-7.272
		c-3.832-1.571-8.212,0.262-9.785,4.094c-1.571,3.833,0.262,8.213,4.094,9.785l17.735,7.272c-0.048,0.861-0.041,1.728,0.011,2.597
		l-17.685,7.399c-3.821,1.599-5.623,5.993-4.024,9.814c1.203,2.875,3.989,4.607,6.922,4.607c0.965,0,1.946-0.188,2.892-0.583
		l17.687-7.4C156.204,238.267,156.813,238.886,157.46,239.46z M169.559,215.231c0.962-0.403,1.969-0.607,2.995-0.607
		c3.146,0,5.964,1.875,7.178,4.778c0.802,1.916,0.81,4.029,0.021,5.95s-2.277,3.421-4.193,4.222
		c-0.962,0.403-1.969,0.607-2.994,0.607c-3.146,0-5.964-1.876-7.179-4.778C163.733,221.449,165.604,216.886,169.559,215.231z"/>
</g>
<g>
</g>
<g>
</g>
<g>
</g>
<g>
</g>
<g>
</g>
<g>
</g>
<g>
</g>
<g>
</g>
<g>
</g>
<g>
</g>
<g>
</g>
<g>
</g>
<g>
</g>
<g>
</g>
<g>
</g>
</svg>
